<svg width="36" height="41" viewBox="0 0 36 41" fill="none" xmlns="http://www.w3.org/2000/svg">
<path d="M35.792 15.8136C35.749 15.2381 35.444 15.018 34.488 14.8388C34.6536 14.6585 34.8067 14.4981 34.9524 14.3325C35.4691 13.7475 35.6127 13.2234 35.3538 12.8838C35.0687 12.5096 34.509 12.4551 33.8014 12.7402C33.64 12.8052 33.4838 12.8849 33.3287 12.9645C33.141 13.061 32.9576 13.1658 32.7018 13.3052C32.88 12.5138 33.0519 11.8219 33.1903 11.1228C33.3234 10.4498 33.1358 9.96029 32.7091 9.74855C32.2867 9.5389 31.7123 9.64791 31.3066 10.1532C30.9303 10.6217 30.575 11.1479 30.3737 11.7066C30.0026 12.7381 29.7689 13.8178 29.445 14.8681C29.1923 15.6878 28.7594 16.4038 27.9942 16.8493C27.815 16.953 27.5718 17.0107 27.3663 16.9939C26.7101 16.9436 26.0571 16.7759 25.404 16.7843C21.9459 16.8272 18.4889 16.9111 15.0307 16.9761C14.4196 16.9876 13.8075 16.9981 13.1974 16.9761C12.5076 16.9509 12.2959 16.7235 12.2823 16.0432C12.2707 15.4666 12.276 14.8901 12.2697 14.3146C12.2383 11.3649 12.2099 8.4152 12.1712 5.46547C12.146 3.5556 11.7099 1.73587 10.9185 0H10.6041C10.0579 1.1866 9.5118 2.37319 9.00341 3.47908C8.57678 2.92247 8.08935 2.24845 7.5558 1.61218C7.4101 1.43817 7.12813 1.37633 6.90905 1.26417C6.81156 1.49058 6.6386 1.71386 6.62917 1.94342C6.57152 3.33757 6.53273 4.73381 6.52959 6.13005C6.52959 6.49274 6.44258 6.65312 6.08409 6.74222C5.3084 6.93614 4.59246 7.33866 4.31048 8.0871C4.00964 8.88585 3.43206 9.07453 2.72975 9.20661C2.4048 9.26741 2.08404 9.3586 1.76957 9.46133C0.704568 9.81039 0.149006 10.5787 0.0441828 11.6668C-0.00927696 12.2203 -0.00927696 12.7821 0.017977 13.3377C0.0661957 14.3042 0.558864 14.9761 1.46768 15.322C2.00542 15.5264 2.54945 15.7151 3.09349 15.9059C3.40691 16.0159 3.55156 16.192 3.53794 16.561C3.49286 17.7644 3.48972 18.9698 3.47399 20.1742C3.44569 22.2864 3.37965 24.3997 3.40796 26.5108C3.42892 28.0035 4.05891 29.1733 5.58408 29.7131C5.42475 30.9909 5.24446 32.2499 5.11552 33.5151C4.95619 35.0769 4.79372 36.642 4.7172 38.2091C4.65535 39.4764 5.24865 40.1231 6.48137 40.3296C6.77173 40.3778 7.06314 40.4177 7.3535 40.4607H9.6596C11.038 40.0267 11.2686 39.7311 11.3284 38.2258C11.4185 35.9753 11.4972 33.7237 11.5726 31.4721C11.5894 30.992 11.5747 30.5109 11.5747 29.9752C12.5391 30.2436 13.2739 30.0056 13.9217 29.4637C15.2897 30.4679 16.6167 30.4637 17.9354 29.3735C18.7341 30.1712 19.6461 30.4029 20.7331 29.8494C20.6555 30.6209 20.5497 31.3117 20.5235 32.0056C20.4459 34.1157 20.3578 36.2269 20.3568 38.3369C20.3568 39.3925 20.9082 39.9743 21.9574 40.0581C23.1723 40.1556 24.4009 40.1818 25.6168 40.1116C26.7342 40.0466 27.1975 39.4774 27.2898 38.3453C27.3275 37.8757 27.3642 37.4051 27.3726 36.9334C27.4124 34.5036 27.3422 32.0801 26.8925 29.6807C26.8653 29.536 26.8967 29.2897 26.9921 29.2278C27.9816 28.5769 28.3265 27.5779 28.4135 26.4919C28.5519 24.7718 28.6085 23.0454 28.6976 21.3221C28.7049 21.1732 28.6976 21.0244 28.6976 20.8147C29.0005 20.952 29.229 21.0694 29.4691 21.1617C30.2416 21.4583 31.033 21.5296 31.8276 21.2759C32.488 21.0652 32.7563 20.6701 32.7102 19.9835C32.6913 19.7004 32.7741 19.5789 33.053 19.516C34.4209 19.2088 34.7364 18.6962 34.3958 17.3398C35.1673 17.1187 35.8664 16.8031 35.792 15.8147V15.8136ZM1.77272 11.5588C1.81464 11.5368 1.85972 11.5159 1.90479 11.4949C1.86077 11.5159 1.81569 11.5368 1.77272 11.5588ZM2.03058 11.4299C2.01066 11.4414 1.99075 11.453 1.96978 11.4645C1.99075 11.454 2.01171 11.4425 2.03058 11.4299C2.05259 11.4697 2.07565 11.5085 2.09872 11.5484C2.07565 11.5096 2.05259 11.4697 2.03058 11.4299Z" fill="#9207CE"/>
</svg>
