<svg width="179" height="41" viewBox="0 0 179 41" fill="none" xmlns="http://www.w3.org/2000/svg">
<path d="M35.792 15.8136C35.749 15.2381 35.444 15.018 34.488 14.8388C34.6536 14.6585 34.8067 14.4981 34.9524 14.3325C35.4691 13.7475 35.6128 13.2234 35.3538 12.8838C35.0687 12.5096 34.509 12.4551 33.8014 12.7402C33.64 12.8052 33.4838 12.8849 33.3287 12.9645C33.141 13.061 32.9576 13.1658 32.7018 13.3052C32.88 12.5138 33.0519 11.8219 33.1903 11.1228C33.3234 10.4498 33.1358 9.96029 32.7091 9.74855C32.2867 9.5389 31.7123 9.64791 31.3066 10.1532C30.9303 10.6217 30.575 11.1479 30.3737 11.7066C30.0026 12.7381 29.7689 13.8178 29.445 14.8681C29.1923 15.6878 28.7594 16.4038 27.9942 16.8493C27.815 16.953 27.5718 17.0107 27.3663 16.9939C26.7101 16.9436 26.0571 16.7759 25.404 16.7843C21.9459 16.8272 18.4889 16.9111 15.0307 16.9761C14.4196 16.9876 13.8075 16.9981 13.1974 16.9761C12.5076 16.9509 12.2959 16.7235 12.2823 16.0432C12.2707 15.4666 12.276 14.8901 12.2697 14.3146C12.2383 11.3649 12.2099 8.4152 12.1712 5.46547C12.146 3.5556 11.7099 1.73587 10.9185 0H10.6041C10.0579 1.1866 9.5118 2.37319 9.00341 3.47908C8.57678 2.92247 8.08935 2.24845 7.5558 1.61218C7.4101 1.43817 7.12813 1.37633 6.90905 1.26417C6.81156 1.49058 6.6386 1.71386 6.62917 1.94342C6.57152 3.33757 6.53273 4.73381 6.52959 6.13005C6.52959 6.49274 6.44258 6.65312 6.08409 6.74222C5.3084 6.93614 4.59246 7.33866 4.31048 8.0871C4.00964 8.88585 3.43206 9.07453 2.72975 9.20661C2.4048 9.26741 2.08404 9.3586 1.76957 9.46133C0.704568 9.81039 0.149006 10.5787 0.0441828 11.6668C-0.00927696 12.2203 -0.00927696 12.7821 0.017977 13.3377C0.0661957 14.3042 0.558864 14.9761 1.46768 15.322C2.00542 15.5264 2.54945 15.7151 3.09349 15.9059C3.40691 16.0159 3.55156 16.192 3.53794 16.561C3.49286 17.7644 3.48972 18.9698 3.47399 20.1742C3.44569 22.2864 3.37965 24.3997 3.40796 26.5108C3.42892 28.0035 4.05891 29.1733 5.58408 29.7131C5.42475 30.9909 5.24446 32.2499 5.11552 33.5151C4.95619 35.0769 4.79372 36.642 4.7172 38.2091C4.65535 39.4764 5.24865 40.1231 6.48137 40.3296C6.77173 40.3778 7.06314 40.4177 7.3535 40.4607H9.6596C11.038 40.0267 11.2686 39.7311 11.3284 38.2258C11.4185 35.9753 11.4972 33.7237 11.5726 31.4721C11.5894 30.992 11.5747 30.5108 11.5747 29.9752C12.5391 30.2436 13.2739 30.0056 13.9217 29.4637C15.2897 30.4679 16.6167 30.4637 17.9354 29.3735C18.7341 30.1712 19.6461 30.4029 20.7331 29.8494C20.6555 30.6209 20.5497 31.3117 20.5235 32.0056C20.4459 34.1157 20.3578 36.2269 20.3568 38.3369C20.3568 39.3925 20.9082 39.9743 21.9574 40.0581C23.1723 40.1556 24.4009 40.1818 25.6168 40.1116C26.7342 40.0466 27.1976 39.4774 27.2898 38.3453C27.3275 37.8757 27.3642 37.4051 27.3726 36.9334C27.4124 34.5036 27.3422 32.0801 26.8925 29.6807C26.8653 29.536 26.8967 29.2897 26.9921 29.2278C27.9816 28.5769 28.3265 27.5779 28.4135 26.4919C28.5519 24.7718 28.6085 23.0454 28.6976 21.3221C28.7049 21.1732 28.6976 21.0244 28.6976 20.8147C29.0005 20.952 29.229 21.0694 29.4691 21.1617C30.2416 21.4583 31.033 21.5296 31.8276 21.2759C32.488 21.0652 32.7563 20.6701 32.7102 19.9835C32.6913 19.7004 32.7741 19.5789 33.053 19.516C34.4209 19.2088 34.7364 18.6962 34.3958 17.3398C35.1673 17.1187 35.8664 16.8031 35.792 15.8147V15.8136ZM1.77272 11.5588C1.81464 11.5368 1.85972 11.5159 1.90479 11.4949C1.86077 11.5159 1.81569 11.5368 1.77272 11.5588ZM2.03058 11.4299C2.01066 11.4414 1.99075 11.453 1.96978 11.4645C1.99075 11.454 2.01171 11.4425 2.03058 11.4299C2.05259 11.4697 2.07565 11.5085 2.09872 11.5484C2.07565 11.5096 2.05259 11.4697 2.03058 11.4299Z" fill="#9207CE"/>
<path d="M49.6372 15.7723V16.5047C49.6372 18.2426 48.7008 19.1754 46.9664 19.1754H43.4686C41.7306 19.1754 40.7979 18.239 40.7979 16.5047V3.1473C40.7979 1.40932 41.7343 0.476562 43.4686 0.476562H49.4732C56.4616 0.476562 58.9392 3.58818 58.9392 8.13536C58.9392 12.6825 56.5017 15.7249 49.6445 15.7723H49.6372ZM54.0131 6.94027C54.0131 5.63587 53.0002 4.68125 51.6302 4.68125C50.2602 4.68125 49.2509 5.63222 49.2509 6.94027C49.2509 8.24831 50.2639 9.20657 51.6302 9.20657C52.9965 9.20657 54.0131 8.2556 54.0131 6.94027Z" fill="white"/>
<path d="M60.8013 16.5047V3.1473C60.8013 1.40932 61.7377 0.476562 63.472 0.476562H66.9698C68.7078 0.476562 69.6406 1.41296 69.6406 3.1473V16.5047C69.6406 18.2426 68.7042 19.1754 66.9698 19.1754H63.472C61.734 19.1754 60.8013 18.239 60.8013 16.5047Z" fill="white"/>
<path d="M72.3149 16.5036V2.46494C72.3149 0.358952 74.3991 -0.402555 76.1188 0.799825L81.8247 4.78954V3.14629C81.8247 1.4083 82.7611 0.475547 84.4954 0.475547H87.9932C89.7312 0.475547 90.664 1.41195 90.664 3.14629V16.5036C90.664 18.2416 89.7276 19.1744 87.9932 19.1744H74.982C73.244 19.1744 72.3113 18.238 72.3113 16.5036H72.3149ZM81.2016 13.4868C81.2016 12.1824 80.1887 11.2277 78.8187 11.2277C77.4487 11.2277 76.4395 12.1787 76.4395 13.4868C76.4395 14.7948 77.4524 15.7531 78.8187 15.7531C80.185 15.7531 81.2016 14.8021 81.2016 13.4868Z" fill="white"/>
<path d="M92.5039 15.9506L100.738 1.53297C101.751 -0.237812 103.449 -0.245099 104.466 1.53297L112.697 15.9506C113.775 17.838 113.112 19.1788 110.933 19.1788H94.2674C92.0885 19.1788 91.4254 17.8416 92.5039 15.9506ZM103.358 13.2981C103.358 11.9937 102.345 11.0391 100.975 11.0391C99.6052 11.0391 98.596 11.99 98.596 13.2981C98.596 14.6061 99.6089 15.5644 100.975 15.5644C102.342 15.5644 103.358 14.6134 103.358 13.2981Z" fill="white"/>
<path d="M115.801 16.5047V11.5749H113.702C112.34 11.5749 111.604 10.6385 111.604 8.90415V3.1473C111.604 1.40932 112.54 0.476562 114.274 0.476562H126.163C127.901 0.476562 128.834 1.41296 128.834 3.1473V8.90415C128.834 10.6421 128.098 11.5749 126.735 11.5749H124.637V16.5047C124.637 18.2426 123.7 19.1754 121.966 19.1754H118.468C116.73 19.1754 115.797 18.239 115.797 16.5047H115.801Z" fill="white"/>
<path d="M127.737 15.9506L135.972 1.53297C136.985 -0.237812 138.683 -0.245099 139.699 1.53297L147.93 15.9506C149.009 17.838 148.345 19.1788 146.167 19.1788H129.501C127.322 19.1788 126.659 17.8416 127.737 15.9506ZM138.592 13.2981C138.592 11.9937 137.579 11.0391 136.209 11.0391C134.839 11.0391 133.829 11.99 133.829 13.2981C133.829 14.6061 134.842 15.5644 136.209 15.5644C137.575 15.5644 138.592 14.6134 138.592 13.2981Z" fill="white"/>
<path d="M49.6372 36.4266V37.159C49.6372 38.8969 48.7008 39.8297 46.9664 39.8297H43.4686C41.7306 39.8297 40.7979 38.8933 40.7979 37.159V23.8016C40.7979 22.0636 41.7343 21.1309 43.4686 21.1309H49.4696C56.4579 21.1309 58.9356 24.2425 58.9356 28.7897C58.9356 33.3368 56.498 36.3792 49.6408 36.4266H49.6372ZM54.0131 27.5946C54.0131 26.2902 53.0002 25.3355 51.6302 25.3355C50.2602 25.3355 49.251 26.2865 49.251 27.5946C49.251 28.9026 50.2639 29.8609 51.6302 29.8609C52.9965 29.8609 54.0131 28.9099 54.0131 27.5946Z" fill="white"/>
<path d="M57.8352 36.6049L66.0697 22.1873C67.0826 20.4165 68.7805 20.4092 69.7971 22.1873L78.0279 36.6049C79.1064 38.4923 78.4433 39.8331 76.2644 39.8331H59.5987C57.4198 39.8331 56.7567 38.4959 57.8352 36.6049ZM68.6858 33.9524C68.6858 32.648 67.6729 31.6934 66.3029 31.6934C64.9329 31.6934 63.9236 32.6443 63.9236 33.9524C63.9236 35.2604 64.9365 36.2187 66.3029 36.2187C67.6692 36.2187 68.6858 35.2677 68.6858 33.9524Z" fill="white"/>
<path d="M79.8752 37.159V23.8016C79.8752 22.0636 80.8116 21.1309 82.546 21.1309H86.0438C87.7818 21.1309 88.7145 22.0673 88.7145 23.8016V27.3541H92.3472C94.0852 27.3541 95.0179 28.2905 95.0179 30.0248V37.159C95.0179 38.8969 94.0815 39.8297 92.3472 39.8297H82.5423C80.8043 39.8297 79.8716 38.8933 79.8716 37.159H79.8752Z" fill="white"/>
<path d="M96.3586 30.4544C96.3586 24.7923 100.738 20.6787 106.67 20.6787C112.602 20.6787 116.981 24.7923 116.981 30.4544C116.981 36.1165 112.602 40.2593 106.67 40.2593C100.738 40.2593 96.3586 36.1457 96.3586 30.4544ZM110.937 27.5432C110.937 26.2388 109.924 25.2842 108.554 25.2842C107.184 25.2842 106.174 26.2352 106.174 27.5432C106.174 28.8513 107.187 29.8095 108.554 29.8095C109.92 29.8095 110.937 28.8585 110.937 27.5432Z" fill="white"/>
<path d="M118.049 30.4544C118.049 24.7923 122.428 20.6787 128.36 20.6787C134.292 20.6787 138.671 24.7923 138.671 30.4544C138.671 36.1165 134.292 40.2593 128.36 40.2593C122.428 40.2593 118.049 36.1457 118.049 30.4544ZM132.627 27.5432C132.627 26.2388 131.614 25.2842 130.244 25.2842C128.874 25.2842 127.865 26.2352 127.865 27.5432C127.865 28.8513 128.878 29.8095 130.244 29.8095C131.61 29.8095 132.627 28.8585 132.627 27.5432Z" fill="white"/>
<path d="M156.991 32.109V37.159C156.991 38.8969 156.055 39.8297 154.321 39.8297H141.79C139.652 39.8297 138.846 38.4524 139.954 36.627L144.294 29.4929H142.209C140.472 29.4929 139.539 28.5565 139.539 26.8221V23.8016C139.539 22.0636 140.475 21.1309 142.209 21.1309H153.891C156.03 21.1309 156.835 22.5081 155.727 24.3336L152.626 29.4346H154.321C156.059 29.4346 156.991 30.371 156.991 32.1053V32.109Z" fill="white"/>
<path d="M158.299 36.6049L166.534 22.1873C167.547 20.4165 169.245 20.4092 170.261 22.1873L178.492 36.6049C179.571 38.4923 178.907 39.8331 176.729 39.8331H160.063C157.884 39.8331 157.221 38.4959 158.299 36.6049ZM169.15 33.9524C169.15 32.648 168.137 31.6934 166.767 31.6934C165.397 31.6934 164.388 32.6443 164.388 33.9524C164.388 35.2604 165.401 36.2187 166.767 36.2187C168.133 36.2187 169.15 35.2677 169.15 33.9524Z" fill="white"/>
</svg>
